<mxfile host="app.diagrams.net" agent="Mozilla/5.0 (Windows NT 10.0; Win64; x64) AppleWebKit/537.36 (KHTML, like Gecko) Chrome/136.0.0.0 Safari/537.36" version="27.0.6">
  <diagram name="Page-1" id="3ljDJtrHwR8jhriiYCea">
    <mxGraphModel dx="1874" dy="427" grid="1" gridSize="10" guides="1" tooltips="1" connect="1" arrows="1" fold="1" page="1" pageScale="1" pageWidth="1169" pageHeight="827" math="0" shadow="0">
      <root>
        <mxCell id="0" />
        <mxCell id="1" parent="0" />
        <mxCell id="gCCHE5M0TESUwaTkZUH8-1" value="" style="rounded=0;whiteSpace=wrap;html=1;" vertex="1" parent="1">
          <mxGeometry x="120" y="90" width="720" height="540" as="geometry" />
        </mxCell>
        <mxCell id="gCCHE5M0TESUwaTkZUH8-2" value="Region" style="points=[[0,0],[0.25,0],[0.5,0],[0.75,0],[1,0],[1,0.25],[1,0.5],[1,0.75],[1,1],[0.75,1],[0.5,1],[0.25,1],[0,1],[0,0.75],[0,0.5],[0,0.25]];outlineConnect=0;gradientColor=none;html=1;whiteSpace=wrap;fontSize=12;fontStyle=0;container=1;pointerEvents=0;collapsible=0;recursiveResize=0;shape=mxgraph.aws4.group;grIcon=mxgraph.aws4.group_region;strokeColor=#00A4A6;fillColor=none;verticalAlign=top;align=left;spacingLeft=30;fontColor=#147EBA;dashed=1;" vertex="1" parent="1">
          <mxGeometry x="160" y="120" width="650" height="450" as="geometry" />
        </mxCell>
        <mxCell id="gCCHE5M0TESUwaTkZUH8-5" value="&lt;b&gt;&lt;font style=&quot;color: rgb(0, 0, 0);&quot;&gt;Medilingo-vpc (10.0.0.0/16)&lt;/font&gt;&lt;/b&gt;" style="points=[[0,0],[0.25,0],[0.5,0],[0.75,0],[1,0],[1,0.25],[1,0.5],[1,0.75],[1,1],[0.75,1],[0.5,1],[0.25,1],[0,1],[0,0.75],[0,0.5],[0,0.25]];outlineConnect=0;gradientColor=none;html=1;whiteSpace=wrap;fontSize=12;fontStyle=0;container=1;pointerEvents=0;collapsible=0;recursiveResize=0;shape=mxgraph.aws4.group;grIcon=mxgraph.aws4.group_vpc2;strokeColor=#8C4FFF;fillColor=none;verticalAlign=top;align=left;spacingLeft=30;fontColor=#AAB7B8;dashed=0;" vertex="1" parent="gCCHE5M0TESUwaTkZUH8-2">
          <mxGeometry x="15" y="55" width="620" height="335" as="geometry" />
        </mxCell>
        <mxCell id="gCCHE5M0TESUwaTkZUH8-3" value="Availability Zone" style="fillColor=none;strokeColor=#147EBA;dashed=1;verticalAlign=top;fontStyle=1;fontColor=#147EBA;whiteSpace=wrap;html=1;" vertex="1" parent="1">
          <mxGeometry x="210" y="150" width="290" height="380" as="geometry" />
        </mxCell>
        <mxCell id="gCCHE5M0TESUwaTkZUH8-4" value="&lt;b&gt;Availability Zone&lt;/b&gt;" style="fillColor=none;strokeColor=#147EBA;dashed=1;verticalAlign=top;fontStyle=0;fontColor=#147EBA;whiteSpace=wrap;html=1;" vertex="1" parent="1">
          <mxGeometry x="510" y="150" width="280" height="380" as="geometry" />
        </mxCell>
        <mxCell id="gCCHE5M0TESUwaTkZUH8-12" value="Public subnet" style="points=[[0,0],[0.25,0],[0.5,0],[0.75,0],[1,0],[1,0.25],[1,0.5],[1,0.75],[1,1],[0.75,1],[0.5,1],[0.25,1],[0,1],[0,0.75],[0,0.5],[0,0.25]];outlineConnect=0;gradientColor=none;html=1;whiteSpace=wrap;fontSize=12;fontStyle=0;container=1;pointerEvents=0;collapsible=0;recursiveResize=0;shape=mxgraph.aws4.group;grIcon=mxgraph.aws4.group_security_group;grStroke=0;strokeColor=#7AA116;fillColor=#F2F6E8;verticalAlign=top;align=left;spacingLeft=30;fontColor=#248814;dashed=0;" vertex="1" parent="1">
          <mxGeometry x="-140" y="260" width="130" height="130" as="geometry" />
        </mxCell>
        <mxCell id="gCCHE5M0TESUwaTkZUH8-13" value="Medilingo-subnet-public2-us-east-1b (10.0.1.0/24)" style="points=[[0,0],[0.25,0],[0.5,0],[0.75,0],[1,0],[1,0.25],[1,0.5],[1,0.75],[1,1],[0.75,1],[0.5,1],[0.25,1],[0,1],[0,0.75],[0,0.5],[0,0.25]];outlineConnect=0;gradientColor=none;html=1;whiteSpace=wrap;fontSize=12;fontStyle=0;container=1;pointerEvents=0;collapsible=0;recursiveResize=0;shape=mxgraph.aws4.group;grIcon=mxgraph.aws4.group_security_group;grStroke=0;strokeColor=#7AA116;fillColor=#F2F6E8;verticalAlign=top;align=left;spacingLeft=30;fontColor=#248814;dashed=0;" vertex="1" parent="1">
          <mxGeometry x="530" y="200" width="220" height="100" as="geometry" />
        </mxCell>
        <mxCell id="gCCHE5M0TESUwaTkZUH8-14" value="Medilingo-subnet-public1-us-east-1a (10.0.0.0/24)" style="points=[[0,0],[0.25,0],[0.5,0],[0.75,0],[1,0],[1,0.25],[1,0.5],[1,0.75],[1,1],[0.75,1],[0.5,1],[0.25,1],[0,1],[0,0.75],[0,0.5],[0,0.25]];outlineConnect=0;gradientColor=none;html=1;whiteSpace=wrap;fontSize=12;fontStyle=0;container=1;pointerEvents=0;collapsible=0;recursiveResize=0;shape=mxgraph.aws4.group;grIcon=mxgraph.aws4.group_security_group;grStroke=0;strokeColor=#7AA116;fillColor=#F2F6E8;verticalAlign=top;align=left;spacingLeft=30;fontColor=#248814;dashed=0;" vertex="1" parent="1">
          <mxGeometry x="230" y="200" width="240" height="100" as="geometry" />
        </mxCell>
        <mxCell id="gCCHE5M0TESUwaTkZUH8-20" value="Medilingo-subnet-private1-us-east-1a (10.0.2.0/24)" style="points=[[0,0],[0.25,0],[0.5,0],[0.75,0],[1,0],[1,0.25],[1,0.5],[1,0.75],[1,1],[0.75,1],[0.5,1],[0.25,1],[0,1],[0,0.75],[0,0.5],[0,0.25]];outlineConnect=0;gradientColor=none;html=1;whiteSpace=wrap;fontSize=12;fontStyle=0;container=1;pointerEvents=0;collapsible=0;recursiveResize=0;shape=mxgraph.aws4.group;grIcon=mxgraph.aws4.group_security_group;grStroke=0;strokeColor=#00A4A6;fillColor=#E6F6F7;verticalAlign=top;align=left;spacingLeft=30;fontColor=#147EBA;dashed=0;" vertex="1" parent="1">
          <mxGeometry x="230" y="320" width="240" height="170" as="geometry" />
        </mxCell>
        <mxCell id="gCCHE5M0TESUwaTkZUH8-22" value="Medilingo-subnet-private2-us-east-1b (10.0.3.0/24)" style="points=[[0,0],[0.25,0],[0.5,0],[0.75,0],[1,0],[1,0.25],[1,0.5],[1,0.75],[1,1],[0.75,1],[0.5,1],[0.25,1],[0,1],[0,0.75],[0,0.5],[0,0.25]];outlineConnect=0;gradientColor=none;html=1;whiteSpace=wrap;fontSize=12;fontStyle=0;container=1;pointerEvents=0;collapsible=0;recursiveResize=0;shape=mxgraph.aws4.group;grIcon=mxgraph.aws4.group_security_group;grStroke=0;strokeColor=#00A4A6;fillColor=#E6F6F7;verticalAlign=top;align=left;spacingLeft=30;fontColor=#147EBA;dashed=0;" vertex="1" parent="1">
          <mxGeometry x="530" y="320" width="220" height="170" as="geometry" />
        </mxCell>
        <mxCell id="gCCHE5M0TESUwaTkZUH8-23" value="Medilingo Security group" style="fillColor=none;strokeColor=#DD3522;verticalAlign=top;fontStyle=0;fontColor=#DD3522;whiteSpace=wrap;html=1;" vertex="1" parent="1">
          <mxGeometry x="550" y="240" width="180" height="50" as="geometry" />
        </mxCell>
        <mxCell id="gCCHE5M0TESUwaTkZUH8-41" style="edgeStyle=orthogonalEdgeStyle;rounded=0;orthogonalLoop=1;jettySize=auto;html=1;exitX=0.5;exitY=0;exitDx=0;exitDy=0;entryX=0;entryY=0.5;entryDx=0;entryDy=0;" edge="1" parent="1" source="gCCHE5M0TESUwaTkZUH8-24" target="gCCHE5M0TESUwaTkZUH8-23">
          <mxGeometry relative="1" as="geometry">
            <Array as="points">
              <mxPoint x="340" y="265" />
            </Array>
          </mxGeometry>
        </mxCell>
        <mxCell id="gCCHE5M0TESUwaTkZUH8-43" style="edgeStyle=orthogonalEdgeStyle;rounded=0;orthogonalLoop=1;jettySize=auto;html=1;exitX=1;exitY=0.5;exitDx=0;exitDy=0;" edge="1" parent="1" source="gCCHE5M0TESUwaTkZUH8-24" target="gCCHE5M0TESUwaTkZUH8-35">
          <mxGeometry relative="1" as="geometry">
            <Array as="points">
              <mxPoint x="430" y="394" />
            </Array>
          </mxGeometry>
        </mxCell>
        <mxCell id="gCCHE5M0TESUwaTkZUH8-24" value="DB Security group" style="fillColor=none;strokeColor=#DD3522;verticalAlign=top;fontStyle=0;fontColor=#DD3522;whiteSpace=wrap;html=1;" vertex="1" parent="1">
          <mxGeometry x="250" y="363" width="180" height="50" as="geometry" />
        </mxCell>
        <mxCell id="gCCHE5M0TESUwaTkZUH8-25" value="DB Security group" style="fillColor=none;strokeColor=#DD3522;verticalAlign=top;fontStyle=0;fontColor=#DD3522;whiteSpace=wrap;html=1;" vertex="1" parent="1">
          <mxGeometry x="550" y="363" width="180" height="50" as="geometry" />
        </mxCell>
        <mxCell id="gCCHE5M0TESUwaTkZUH8-26" value="" style="points=[];aspect=fixed;html=1;align=center;shadow=0;dashed=0;fillColor=#FF6A00;strokeColor=none;shape=mxgraph.alibaba_cloud.nat_gateway;" vertex="1" parent="1">
          <mxGeometry x="250" y="248.3" width="51.6" height="41.699999999999996" as="geometry" />
        </mxCell>
        <mxCell id="gCCHE5M0TESUwaTkZUH8-27" value="Medilingo Web Server" style="outlineConnect=0;dashed=0;verticalLabelPosition=bottom;verticalAlign=top;align=center;html=1;shape=mxgraph.aws3.ec2;fillColor=#F58534;gradientColor=none;" vertex="1" parent="1">
          <mxGeometry x="585" y="270" width="20" height="20" as="geometry" />
        </mxCell>
        <mxCell id="gCCHE5M0TESUwaTkZUH8-34" value="" style="sketch=0;outlineConnect=0;fontColor=#232F3E;gradientColor=none;fillColor=#C925D1;strokeColor=none;dashed=0;verticalLabelPosition=bottom;verticalAlign=top;align=center;html=1;fontSize=12;fontStyle=0;aspect=fixed;pointerEvents=1;shape=mxgraph.aws4.rds_instance;" vertex="1" parent="1">
          <mxGeometry x="250" y="375" width="38" height="38" as="geometry" />
        </mxCell>
        <mxCell id="gCCHE5M0TESUwaTkZUH8-35" value="" style="sketch=0;outlineConnect=0;fontColor=#232F3E;gradientColor=none;fillColor=#C925D1;strokeColor=none;dashed=0;verticalLabelPosition=bottom;verticalAlign=top;align=center;html=1;fontSize=12;fontStyle=0;aspect=fixed;pointerEvents=1;shape=mxgraph.aws4.rds_instance;" vertex="1" parent="1">
          <mxGeometry x="550" y="375" width="38" height="38" as="geometry" />
        </mxCell>
        <mxCell id="gCCHE5M0TESUwaTkZUH8-36" value="Medilingo Volume" style="text;html=1;align=center;verticalAlign=middle;whiteSpace=wrap;rounded=0;" vertex="1" parent="1">
          <mxGeometry x="288" y="390" width="120" height="23" as="geometry" />
        </mxCell>
        <mxCell id="gCCHE5M0TESUwaTkZUH8-37" value="Medilingo backup storage" style="text;html=1;align=center;verticalAlign=middle;whiteSpace=wrap;rounded=0;" vertex="1" parent="1">
          <mxGeometry x="572.5" y="390" width="135" height="23" as="geometry" />
        </mxCell>
        <mxCell id="gCCHE5M0TESUwaTkZUH8-40" value="" style="edgeStyle=orthogonalEdgeStyle;rounded=0;orthogonalLoop=1;jettySize=auto;html=1;" edge="1" parent="1" source="gCCHE5M0TESUwaTkZUH8-38" target="gCCHE5M0TESUwaTkZUH8-39">
          <mxGeometry relative="1" as="geometry" />
        </mxCell>
        <mxCell id="gCCHE5M0TESUwaTkZUH8-38" value="" style="outlineConnect=0;dashed=0;verticalLabelPosition=bottom;verticalAlign=top;align=center;html=1;shape=mxgraph.aws3.internet_gateway;fillColor=#F58534;gradientColor=none;" vertex="1" parent="1">
          <mxGeometry x="470" y="140" width="50" height="50" as="geometry" />
        </mxCell>
        <mxCell id="gCCHE5M0TESUwaTkZUH8-39" value="" style="outlineConnect=0;dashed=0;verticalLabelPosition=bottom;verticalAlign=top;align=center;html=1;shape=mxgraph.aws3.internet_3;fillColor=#D2D3D3;gradientColor=none;" vertex="1" parent="1">
          <mxGeometry x="455.25" y="20" width="79.5" height="54" as="geometry" />
        </mxCell>
        <mxCell id="gCCHE5M0TESUwaTkZUH8-45" value="" style="points=[];aspect=fixed;html=1;align=center;shadow=0;dashed=0;fillColor=#FF6A00;strokeColor=none;shape=mxgraph.alibaba_cloud.alb_application_load_balancer_02;" vertex="1" parent="1">
          <mxGeometry x="480" y="400" width="40" height="40" as="geometry" />
        </mxCell>
        <mxCell id="gCCHE5M0TESUwaTkZUH8-46" value="DB Security group" style="fillColor=none;strokeColor=#DD3522;verticalAlign=top;fontStyle=0;fontColor=#DD3522;whiteSpace=wrap;html=1;" vertex="1" parent="1">
          <mxGeometry x="250" y="430" width="180" height="50" as="geometry" />
        </mxCell>
        <mxCell id="gCCHE5M0TESUwaTkZUH8-47" value="DB Security group" style="fillColor=none;strokeColor=#DD3522;verticalAlign=top;fontStyle=0;fontColor=#DD3522;whiteSpace=wrap;html=1;" vertex="1" parent="1">
          <mxGeometry x="550" y="430" width="180" height="50" as="geometry" />
        </mxCell>
        <mxCell id="gCCHE5M0TESUwaTkZUH8-48" value="Medilingo Web Instance" style="outlineConnect=0;dashed=0;verticalLabelPosition=bottom;verticalAlign=top;align=center;html=1;shape=mxgraph.aws3.ec2;fillColor=#F58534;gradientColor=none;" vertex="1" parent="1">
          <mxGeometry x="266" y="450" width="22" height="20" as="geometry" />
        </mxCell>
        <mxCell id="gCCHE5M0TESUwaTkZUH8-49" value="Medilingo Web Instance" style="outlineConnect=0;dashed=0;verticalLabelPosition=bottom;verticalAlign=top;align=center;html=1;shape=mxgraph.aws3.ec2;fillColor=#F58534;gradientColor=none;" vertex="1" parent="1">
          <mxGeometry x="572.5" y="450" width="22" height="20" as="geometry" />
        </mxCell>
        <mxCell id="gCCHE5M0TESUwaTkZUH8-50" value="&lt;b&gt;&lt;font style=&quot;font-size: 10px;&quot;&gt;App Load balancer&lt;/font&gt;&lt;/b&gt;" style="text;html=1;align=center;verticalAlign=middle;whiteSpace=wrap;rounded=0;" vertex="1" parent="1">
          <mxGeometry x="444.75" y="440" width="65.25" height="30" as="geometry" />
        </mxCell>
        <mxCell id="gCCHE5M0TESUwaTkZUH8-51" value="" style="endArrow=classic;html=1;rounded=0;exitX=1;exitY=0.5;exitDx=0;exitDy=0;entryX=0.141;entryY=0.386;entryDx=0;entryDy=0;entryPerimeter=0;" edge="1" parent="1" source="gCCHE5M0TESUwaTkZUH8-46" target="gCCHE5M0TESUwaTkZUH8-45">
          <mxGeometry width="50" height="50" relative="1" as="geometry">
            <mxPoint x="470" y="490" as="sourcePoint" />
            <mxPoint x="520" y="440" as="targetPoint" />
          </mxGeometry>
        </mxCell>
        <mxCell id="gCCHE5M0TESUwaTkZUH8-52" value="" style="endArrow=classic;html=1;rounded=0;exitX=0;exitY=0.5;exitDx=0;exitDy=0;entryX=0.974;entryY=0.494;entryDx=0;entryDy=0;entryPerimeter=0;" edge="1" parent="1" source="gCCHE5M0TESUwaTkZUH8-47" target="gCCHE5M0TESUwaTkZUH8-45">
          <mxGeometry width="50" height="50" relative="1" as="geometry">
            <mxPoint x="510" y="460" as="sourcePoint" />
            <mxPoint x="566" y="420" as="targetPoint" />
          </mxGeometry>
        </mxCell>
      </root>
    </mxGraphModel>
  </diagram>
</mxfile>
